<svg data-v-0dd9719b="" version="1.0" xmlns="http://www.w3.org/2000/svg" xmlns:xlink="http://www.w3.org/1999/xlink" width="100%" height="100%" viewBox="0 0 340.000000 250.000000" preserveAspectRatio="xMidYMid meet" color-interpolation-filters="sRGB" style="margin: auto;"> <rect data-v-0dd9719b="" x="0" y="0" width="100%" height="100%" fill="#fff" fill-opacity="1" class="background"></rect> <rect data-v-0dd9719b="" x="0" y="0" width="100%" height="100%" fill="url(#watermark)" fill-opacity="1" class="watermarklayer"></rect> <g data-v-0dd9719b="" fill="#333" class="icon-text-wrapper icon-svg-group iconsvg" transform="translate(48.345001220703125,95.01139640808105)"><g class="iconsvg-imagesvg" transform="translate(0,0)"><g><rect fill="#333" fill-opacity="0" stroke-width="2" x="0" y="0" width="60" height="59.977208660708925" class="image-rect"></rect> <svg x="0" y="0" width="60" height="59.977208660708925" filtersec="colorsb825828275" class="image-svg-svg primary" style="overflow: visible;"><svg xmlns="http://www.w3.org/2000/svg" viewBox="-0.024392234161496162 -0.00439166696742177 206.4888916015625 206.41061401367188"><title>资源 7</title><g fill-rule="evenodd"><path d="M176.24 176.18a102.91 102.91 0 0 1-76.44 30.16c-8.75-.29-10.94-10.72-6.79-17 17.92-27.07 75.72-28.09 101.23-60a56.23 56.23 0 0 0 10.57-21.88c.56-2.21 1.26-4.67 1.63-6.42a102.92 102.92 0 0 1-30.2 75.1z" fill="#03b2de" opacity=".48"></path><path d="M176.18 176.24a102.92 102.92 0 0 0 30.16-76.44c-.29-8.76-10.73-10.94-17-6.79C168.21 107 163 145.3 146.5 173.56c-9.44 16.21-25.92 31.19-45.38 32.82a102.78 102.78 0 0 0 75.06-30.14z" fill="#8e03ff" opacity=".48"></path><path d="M30.22 30.28A102.94 102.94 0 0 1 106.66.12c8.77.29 10.94 10.73 6.79 17-17.91 27.07-75.72 28.09-101.23 60A56.23 56.23 0 0 0 1.65 99c-.56 2.17-1.25 4.63-1.65 6.38a102.93 102.93 0 0 1 30.2-75.1z" fill="#00deb9" opacity=".48"></path><path d="M30.28 30.22A102.94 102.94 0 0 0 .12 106.66c.29 8.77 10.73 10.94 17 6.79 27.07-17.91 28.09-75.72 60-101.23A56.23 56.23 0 0 1 99 1.65c2.21-.56 4.67-1.25 6.42-1.63a102.93 102.93 0 0 0-75.1 30.2z" fill="#1d88e1" opacity=".48"></path><path d="M44 187.8c-32.11-55.4 181.83-82.46 145-142a103.71 103.71 0 0 0-26.5-27.07c25.84 44.36-100 69.18-138.89 106.54C12.3 136.12 10.9 151.63 20 164.34a103.82 103.82 0 0 0 24 23.46z" fill="#8e03ff" opacity=".48"></path><path d="M187.75 44c-51.41-29.78-77.2 148.08-127.43 150-4.47.18-9.6-2-14.56-5a103.71 103.71 0 0 1-27.07-26.5C71.5 193.28 96.63 9 148.17 12.54c4.69.32 10.6 3.57 16.11 7.51a104.32 104.32 0 0 1 23.47 24z" fill="#1d88e1" opacity=".48"></path></g></svg></svg> <!----></g></g> <g transform="translate(67,1.1073551177978516)"><g data-gra="path-name" fill-rule="" class="tp-name iconsvg-namesvg" transform="translate(0,0)"><g transform="scale(1)"><g><path d="M13.59-26.1L21.33-26.1Q23.45-28.48 25.29-31.54L25.29-31.54 17.68-31.54Q15.3-27.81 12.29-24.79L12.29-24.79 11.21-25.7Q13.5-28.13 15.5-30.96 17.5-33.8 18.9-36.77L18.9-36.77 20.25-36.18Q19.44-34.47 18.54-32.89L18.54-32.89 26.95-32.89 26.95-31.59Q26.01-30.06 25.04-28.69 24.07-27.31 22.99-26.1L22.99-26.1 28.98-26.1 28.98-12.15 13.59-12.15 13.59-26.1ZM11.29 3.73L10.53 2.34Q13 1.4 14.74 0.47 16.47-0.45 17.57-1.42 18.68-2.38 19.3-3.42 19.93-4.46 20.2-5.63L20.2-5.63 11.16-5.63 11.16-7.02 20.43-7.02Q20.52-7.92 20.56-8.89 20.61-9.86 20.61-11.03L20.61-11.03 22.14-11.03Q22.09-9.86 22.07-8.89 22.05-7.92 21.96-7.02L21.96-7.02 31.36-7.02 31.36-5.63 21.73-5.63 21.46-4.46Q22.27-4 23.31-3.35 24.34-2.7 25.43-2 26.5-1.3 27.52-0.56 28.53 0.18 29.29 0.81L29.29 0.81 28.39 2.02Q27.63 1.35 26.64 0.61 25.65-0.14 24.61-0.85 23.58-1.57 22.61-2.18 21.64-2.79 20.93-3.19L20.93-3.19Q20.43-2.29 19.66-1.44 18.9-0.58 17.75 0.25 16.61 1.08 15.01 1.93 13.41 2.79 11.29 3.73L11.29 3.73ZM30.6 4.23L30.33 2.38Q31.09 2.43 31.99 2.45 32.89 2.48 33.66 2.48L33.66 2.48Q34.56 2.48 35.05 2.36 35.55 2.25 35.8 2 36.05 1.75 36.09 1.33 36.13 0.9 36.13 0.18L36.13 0.18 36.13-20.07 30.38-20.07 30.38-21.6 42.48-21.6 42.48-20.07 37.62-20.07 37.62 0.54Q37.62 1.44 37.48 2.07 37.35 2.7 36.97 3.1 36.59 3.51 35.93 3.73 35.28 3.96 34.24 4.05L34.24 4.05Q33.34 4.14 32.42 4.18 31.5 4.23 30.6 4.23L30.6 4.23ZM2.29-9.22L0.99-10.17Q2.21-11.7 3.4-13.57 4.59-15.43 5.69-17.44 6.79-19.44 7.76-21.42 8.73-23.4 9.49-25.24L9.49-25.24 10.98-24.57Q10.26-22.95 9.49-21.38 8.73-19.8 7.92-18.22L7.92-18.22 7.92 5.08 6.43 5.08 6.43-15.57Q5.4-13.86 4.37-12.26 3.33-10.66 2.29-9.22L2.29-9.22ZM14.94-18.59L14.94-13.41 20.7-13.41 20.7-18.59 14.94-18.59ZM22.05-13.41L27.63-13.41 27.63-18.59 22.05-18.59 22.05-13.41ZM14.94-24.79L14.94-19.89 20.7-19.89 20.7-24.79 14.94-24.79ZM27.63-24.79L22.05-24.79 22.05-19.89 27.63-19.89 27.63-24.79ZM2.65-24.57L1.62-25.61Q4.05-27.77 6.37-30.6 8.69-33.44 10.35-36.41L10.35-36.41 11.65-35.64Q9.9-32.67 7.51-29.77 5.13-26.86 2.65-24.57L2.65-24.57ZM30.51-32.76L41.71-32.76 41.71-31.23 30.51-31.23 30.51-32.76ZM65.56-32.85L84.96-32.85 84.96 2.7 65.56 2.7 65.56-32.85ZM67.19 0.99L83.38 0.99 83.38-15.03 67.19-15.03 67.19 0.99ZM67.19-31.23L67.19-16.7 83.38-16.7 83.38-31.23 67.19-31.23ZM50.27-33.75L62.05-33.75 62.05-32.17Q61.25-29.25 60.21-26.35 59.17-23.45 58-20.93L58-20.93Q60.16-18.04 61.27-15.28 62.37-12.51 62.41-9.76L62.41-9.76Q62.41-8.1 62.14-7 61.88-5.89 61.25-5.22 60.62-4.54 59.58-4.18 58.55-3.82 57.06-3.69L57.06-3.69Q56.79-3.69 56.32-3.67 55.84-3.65 55.37-3.65 54.9-3.65 54.49-3.65 54.09-3.65 53.91-3.65L53.91-3.65 53.59-5.54Q53.77-5.54 54.23-5.51 54.67-5.49 55.15-5.47 55.62-5.44 56.05-5.42 56.48-5.4 56.7-5.4L56.7-5.4Q57.87-5.44 58.68-5.63 59.49-5.8 59.98-6.3 60.48-6.79 60.7-7.65 60.93-8.5 60.93-9.86L60.93-9.86Q60.93-12.15 59.87-14.83 58.81-17.5 56.43-20.65L56.43-20.65Q57.6-23.49 58.63-26.28 59.67-29.07 60.52-32.17L60.52-32.17 51.84-32.17 51.84 5.26 50.27 5.26 50.27-33.75ZM105.3-34.16L129.01-34.16 129.01-32.67Q126.45-30.42 123.84-28.44 121.23-26.46 118.48-24.75L118.48-24.75 120.11-23.36 129.38-23.36 129.38 0.09Q129.38 2.07 128.61 2.95 127.84 3.82 125.78 4.05L125.78 4.05Q124.88 4.14 123.95 4.16 123.03 4.18 122.13 4.14L122.13 4.14 121.86 2.38Q122.72 2.48 123.64 2.52 124.56 2.56 125.41 2.52L125.41 2.52Q126.85 2.48 127.35 1.91 127.84 1.35 127.84-0.09L127.84-0.09 127.84-5.22 118.08-5.22 118.08 3.87 116.59 3.87 116.59-5.22 106.78-5.22 106.78 4.54 105.25 4.54 105.25-23.36 117.77-23.36Q116.86-24.21 115.72-25.15 114.57-26.1 113.53-26.91L113.53-26.91Q111.96-28.08 110.66-28.93 109.35-29.79 108.36-30.33L108.36-30.33 109.35-31.54Q110.34-30.96 111.6-30.08 112.86-29.2 114.44-28.04L114.44-28.04Q115.11-27.54 115.85-26.95 116.59-26.37 117.31-25.74L117.31-25.74Q122.13-28.75 126.45-32.63L126.45-32.63 105.3-32.63 105.3-34.16ZM106.78-13.59L106.78-6.71 116.59-6.71 116.59-13.59 106.78-13.59ZM118.08-13.59L118.08-6.71 127.84-6.71 127.84-13.59 118.08-13.59ZM106.78-21.82L106.78-15.07 116.59-15.07 116.59-21.82 106.78-21.82ZM127.84-21.82L118.08-21.82 118.08-15.07 127.84-15.07 127.84-21.82ZM96.03 4.37L94.55 3.78Q95.81 1.03 97.33-4.14L97.33-4.14Q98.1-6.75 98.59-8.8 99.09-10.84 99.36-12.46L99.36-12.46 100.89-12.11Q100.62-10.48 100.1-8.37 99.58-6.25 98.82-3.65L98.82-3.65Q98.06-1.03 97.36 0.94 96.66 2.92 96.03 4.37L96.03 4.37ZM92.25-24.12L93.19-25.38Q94-24.84 95.06-24.03 96.12-23.22 97.42-22.14L97.42-22.14Q98.73-21.06 99.74-20.16 100.75-19.26 101.47-18.54L101.47-18.54 100.31-17.23Q99.63-17.95 98.71-18.83 97.78-19.71 96.48-20.84L96.48-20.84Q93.87-23.04 92.25-24.12L92.25-24.12ZM94.64-33.62L95.58-34.78Q96.39-34.29 97.42-33.5 98.46-32.71 99.77-31.63L99.77-31.63Q101.07-30.6 102.06-29.72 103.05-28.84 103.72-28.13L103.72-28.13 102.73-26.95Q102.06-27.68 101.11-28.51 100.17-29.34 98.86-30.38L98.86-30.38Q97.56-31.41 96.5-32.22 95.44-33.03 94.64-33.62L94.64-33.62ZM149.4 4.23L149.13 2.34Q150.34 2.43 151.22 2.48 152.1 2.52 153.27 2.48L153.27 2.48Q154.4 2.43 155.05 2.34 155.7 2.25 155.99 1.91 156.28 1.57 156.35 0.94 156.42 0.32 156.42-0.81L156.42-0.81 156.42-16.7 142.38-16.7 142.38-32.17 152.73-32.17Q152.95-32.58 153.22-33.1 153.5-33.62 153.81-34.24L153.81-34.24Q154.66-36.09 155.03-37.13L155.03-37.13 156.82-36.81Q156.6-36.27 156.28-35.57 155.97-34.88 155.52-33.98L155.52-33.98 154.57-32.17 170.95-32.17 170.95-16.7 157.95-16.7 157.95-15.39Q158.99-13.14 160.2-11.21 161.41-9.27 162.99-7.56L162.99-7.56Q164.97-8.55 167.85-10.57L167.85-10.57Q169.43-11.7 170.59-12.6 171.76-13.5 172.66-14.31L172.66-14.31 173.75-13.05Q172.84-12.24 171.59-11.27 170.32-10.3 168.7-9.18L168.7-9.18Q166.05-7.33 164.16-6.34L164.16-6.34Q166.72-3.82 169.97-1.96 173.2-0.09 177.3 1.3L177.3 1.3 176.67 2.97Q170.01 0.58 165.42-3.17 160.83-6.93 157.95-12.38L157.95-12.38 157.95-0.32Q157.95 0.99 157.81 1.75 157.68 2.52 157.3 2.97 156.91 3.42 156.22 3.65 155.52 3.87 154.4 4L154.4 4Q153.5 4.14 152.24 4.18 150.97 4.23 149.4 4.23L149.4 4.23ZM143.96-18.09L169.38-18.09 169.38-23.8 143.96-23.8 143.96-18.09ZM143.96-30.82L143.96-25.2 169.38-25.2 169.38-30.82 143.96-30.82ZM136.89 3.38L136.03 2.07Q145.53-2.56 149.9-9.81L149.9-9.81 137.88-9.81 137.88-11.29 151.65-11.29 151.65-9.76Q149.35-5.71 145.71-2.45 142.06 0.81 136.89 3.38L136.89 3.38Z" transform="translate(-0.9900000095367432, 37.130001068115234)"></path></g> <!----> <!----> <!----> <!----> <!----> <!----> <!----></g></g> <g data-gra="path-slogan" fill-rule="" class="tp-slogan iconsvg-slogansvg" fill="#333" transform="translate(18.264999389648438,48.38999938964844)"><!----> <!----> <g transform="scale(1, 1)"><g transform="scale(1)"><path d="M2.06-5.06L6.56-5.06L6.56-8.58L7.73-8.58L7.73 0L6.56 0L6.56-3.98L2.06-3.98L2.06 0L0.89 0L0.89-8.58L2.06-8.58L2.06-5.06ZM10.83-1.03L15.98-1.03L15.98 0L9.66 0L9.66-8.58L15.89-8.58L15.89-7.59L10.83-7.59L10.83-4.92L15.52-4.92L15.52-3.89L10.83-3.89L10.83-1.03ZM18.89-8.58L23.20-1.64L23.20-8.58L24.33-8.58L24.33 0L23.02 0L18.66-6.94L18.61-6.94L18.61 0L17.48 0L17.48-8.58L18.89-8.58ZM32.53-3.61L29.91-3.61L29.91-4.59L33.66-4.59L33.66 0L32.91 0L32.63-1.08Q31.64 0.09 29.81 0.14L29.81 0.14Q28.08 0.14 27.14-0.75L27.14-0.75Q25.73-2.06 25.78-4.36L25.78-4.36Q26.11-8.63 29.86-8.81L29.86-8.81Q33.05-8.63 33.52-6L33.52-6L32.39-6Q31.92-7.78 29.81-7.83L29.81-7.83Q27.14-7.64 27-4.31L27-4.31Q27-0.75 29.86-0.75L29.86-0.75Q30.89-0.75 31.64-1.31L31.64-1.31Q32.58-2.06 32.53-3.61L32.53-3.61ZM42.38-8.58L39.14-3.47L39.14 0L37.97 0L37.97-3.47L34.73-8.58L36.09-8.58L38.53-4.45L41.02-8.58L42.38-8.58ZM49.08 0L48.23-2.48L44.77-2.48L43.88 0L42.70 0L45.94-8.58L47.25-8.58L50.34 0L49.08 0ZM46.50-7.31L45.14-3.52L47.81-3.52L46.55-7.31L46.50-7.31ZM52.78-8.58L57.09-1.64L57.09-8.58L58.22-8.58L58.22 0L56.91 0L52.55-6.94L52.50-6.94L52.50 0L51.38 0L51.38-8.58L52.78-8.58ZM66.42-3.61L63.80-3.61L63.80-4.59L67.55-4.59L67.55 0L66.80 0L66.52-1.08Q65.53 0.09 63.70 0.14L63.70 0.14Q61.97 0.14 61.03-0.75L61.03-0.75Q59.63-2.06 59.67-4.36L59.67-4.36Q60-8.63 63.75-8.81L63.75-8.81Q66.94-8.63 67.41-6L67.41-6L66.28-6Q65.81-7.78 63.70-7.83L63.70-7.83Q61.03-7.64 60.89-4.31L60.89-4.31Q60.89-0.75 63.75-0.75L63.75-0.75Q64.78-0.75 65.53-1.31L65.53-1.31Q66.47-2.06 66.42-3.61L66.42-3.61ZM79.59-8.58L76.36-3.47L76.36 0L75.19 0L75.19-3.47L71.95-8.58L73.31-8.58L75.75-4.45L78.23-8.58L79.59-8.58ZM87.42-4.27L87.42-4.27Q87.23-7.64 84.42-7.83L84.42-7.83Q81.56-7.69 81.42-4.27L81.42-4.27Q81.56-0.94 84.42-0.80L84.42-0.80Q87.23-0.98 87.42-4.27ZM88.59-4.27L88.59-4.27Q88.31 0 84.42 0.14L84.42 0.14Q80.48 0 80.20-4.27L80.20-4.27Q80.44-8.72 84.42-8.81L84.42-8.81Q88.31-8.67 88.59-4.27ZM91.36-8.58L95.67-1.64L95.67-8.58L96.80-8.58L96.80 0L95.48 0L91.13-6.94L91.08-6.94L91.08 0L89.95 0L89.95-8.58L91.36-8.58ZM105-3.61L102.38-3.61L102.38-4.59L106.13-4.59L106.13 0L105.38 0L105.09-1.08Q104.11 0.09 102.28 0.14L102.28 0.14Q100.55 0.14 99.61-0.75L99.61-0.75Q98.20-2.06 98.25-4.36L98.25-4.36Q98.58-8.63 102.33-8.81L102.33-8.81Q105.52-8.63 105.98-6L105.98-6L104.86-6Q104.39-7.78 102.28-7.83L102.28-7.83Q99.61-7.64 99.47-4.31L99.47-4.31Q99.47-0.75 102.33-0.75L102.33-0.75Q103.36-0.75 104.11-1.31L104.11-1.31Q105.05-2.06 105-3.61L105-3.61ZM112.92-1.08L112.03-1.78L112.64-2.48L113.72-1.64Q114.70-2.63 114.70-4.27L114.70-4.27Q114.52-7.64 111.70-7.83L111.70-7.83Q108.84-7.69 108.70-4.27L108.70-4.27Q108.84-0.94 111.70-0.80L111.70-0.80Q112.41-0.80 112.92-1.08L112.92-1.08ZM114.66-0.94L115.78-0.05L115.22 0.56L113.91-0.33Q113.06 0.14 111.70 0.14L111.70 0.14Q107.77 0 107.48-4.27L107.48-4.27Q107.72-8.72 111.70-8.81L111.70-8.81Q115.59-8.67 115.88-4.27L115.88-4.27Q115.83-2.20 114.66-0.94L114.66-0.94ZM122.91-3.19L122.91-8.58L124.08-8.58L124.08-3.05Q123.94 0.05 120.56 0.14L120.56 0.14Q117.42 0.05 117.28-2.86L117.28-2.86L117.28-8.58L118.45-8.58L118.45-3.19Q118.50-0.84 120.61-0.80L120.61-0.80Q122.91-0.84 122.91-3.19L122.91-3.19ZM131.53 0L130.69-2.48L127.22-2.48L126.33 0L125.16 0L128.39-8.58L129.70-8.58L132.80 0L131.53 0ZM128.95-7.31L127.59-3.52L130.27-3.52L129-7.31L128.95-7.31ZM135.23-8.58L139.55-1.64L139.55-8.58L140.67-8.58L140.67 0L139.36 0L135-6.94L134.95-6.94L134.95 0L133.83 0L133.83-8.58L135.23-8.58Z" transform="translate(-0.890625, 8.8125)"></path></g></g></g></g></g><defs v-gra="od"></defs></svg>